<svg xmlns="http://www.w3.org/2000/svg" id="vector" viewBox="263.87 6.93 114.45 131.07">
    <g id="group">
        <path id="path" d="M 264.6 134.3 C 264.9 132.2 265.9 129.9 266.8 129.3 C 267.7 128.6 267.9 128 267.3 128 C 266.2 128 266.5 125.2 268 121.5 C 268.4 120.4 269.5 116.6 270.4 113 C 271.4 109.4 273.1 103.4 274.3 99.6 C 275.5 95.8 276.5 92.2 276.6 91.6 C 276.8 90.4 281.9 74.1 285.4 63.5 C 286.7 59.7 288.3 54.6 289 52.3 C 290.2 48.3 292 46.5 292 49.2 C 292 49.8 292.6 49.6 293.3 48.5 C 294.1 47.5 295.2 47 295.8 47.4 C 296.5 47.8 297 47.5 297 46.6 C 297 44.6 300.4 42.8 302.7 43.6 C 303.7 43.9 306.5 45.2 309 46.4 C 311.5 47.5 314.6 48.5 316 48.6 C 319.2 48.7 322 49.9 322 51.3 C 322 51.9 321.7 52 321.3 51.7 C 321 51.3 319.6 51.7 318.4 52.5 C 317.1 53.3 315.4 53.7 314.6 53.4 C 313.5 53 313 53.4 313 54.8 C 313 56 311.9 58.1 310.5 59.6 C 309.1 61.1 308 61.9 308 61.5 C 308 61.1 307.1 61.5 306 62.5 C 304.8 63.6 304 63.8 304 63.1 C 304 62.4 303.6 62.2 303 62.5 C 302.5 62.8 302 62.4 302 61.6 C 302 60.7 301.5 60 300.9 60 C 300.4 60 300.1 59.6 300.4 59.1 C 300.7 58.6 300.3 57.9 299.4 57.6 C 298.4 57.2 298 56.2 298.3 55.1 C 298.5 54.1 298.4 52.6 297.9 51.9 C 297.4 51 297 51.3 296.5 53.1 C 296.1 54.8 296.7 57.2 298.3 60.5 C 300.2 64.2 300.6 65.7 299.7 67 C 299.2 68 299 69.5 299.4 70.5 C 300 72.2 300.3 72.1 302.7 69.9 C 304.3 68.4 305.4 67.9 305.7 68.6 C 305.9 69.3 307 69.6 308 69.3 C 309.4 68.9 310 69.3 310 70.3 C 310 71.3 310.6 71.6 312 71.3 C 313.5 70.9 314 71.3 314 72.6 C 314 74.2 314.2 74.3 315 73 C 315.7 71.9 316.2 71.8 317.1 72.7 C 318 73.6 317.5 74.9 314.9 78.2 C 313.1 80.6 310.8 83.1 309.8 83.8 C 308.9 84.5 308.3 85.7 308.7 86.6 C 309.2 87.9 309.4 87.9 310.4 86.5 C 311.6 84.8 317.4 84.2 331.2 84 C 335.1 83.9 337 83.5 337.4 82.5 C 337.8 81.5 339 81.1 341.2 81.4 C 343 81.7 344.9 81.9 345.3 81.9 C 345.8 82 345.8 82.9 345.5 84 C 344.8 86.2 346.7 86.8 347.6 84.6 C 347.9 83.8 349.2 83.4 350.8 83.7 C 353 84 353.1 83.9 351.6 83.2 C 350.4 82.7 350.1 82.1 350.7 81.7 C 351.2 81.4 352.6 81.7 353.6 82.5 C 355.8 84.1 359.4 84.5 358.5 83 C 358.2 82.5 358.4 82 358.9 82 C 359.5 82 360 82.5 360 83.1 C 360 83.7 360.8 84 361.8 83.8 C 362.9 83.5 364.8 83.9 366.1 84.6 C 368.8 86.1 371.1 86.4 370.9 85.3 C 370.8 84.8 370.8 83.5 370.9 82.3 C 371 79.3 373 79.3 373 82.2 C 373 83.7 373.3 84.1 374 83.4 C 376.5 80.9 372 76.9 369.3 79.1 C 368.3 80 367.6 80 366.8 79.2 C 365.9 78.3 365.9 78 366.8 78 C 369 78 368 76.2 365.5 75.6 C 362 74.7 362.4 72.9 365.9 73.6 C 369.2 74.3 370.9 72.5 368.3 71.2 C 367.3 70.7 364.7 69.9 362.5 69.6 C 360.2 69.2 354.4 66.9 349.6 64.4 C 344.7 62 339.7 60 338.4 60 C 337.2 60 335.9 59.4 335.7 58.8 C 335.3 57.8 335.1 57.8 335.1 58.8 C 335 59.4 334.5 60 333.9 60 C 333.1 60 332.9 58.8 333.3 56.6 C 333.7 54.1 333.5 53.2 332.6 53.6 C 331.9 53.9 330.6 53.2 329.6 52.1 C 327.9 50.2 327.9 50.2 329.7 50.4 C 330.7 50.6 332 50.3 332.7 49.8 C 333.4 49.3 334.1 49.3 334.5 50 C 334.8 50.6 335.6 50.8 336.1 50.5 C 336.6 50.1 337 50.4 337 50.9 C 337 51.5 337.7 52 338.5 52 C 339.4 52 339.7 51.4 339.4 50.3 C 338.9 48.8 339.1 48.8 340.4 50.4 C 341.3 51.5 342 53.1 342 54 C 342 58 350.3 62.8 365.1 67.6 C 372.6 70 377.6 73.6 376.8 76.2 C 376.5 76.9 376.9 78.5 377.6 79.8 C 378.3 81.2 378.5 83.1 378.1 84.1 C 377.1 86.9 368.1 94 365.7 94 C 364.6 94 360.4 92.9 356.4 91.5 C 345 87.6 341.7 87.4 332 90.5 C 325.4 92.6 322.3 93.1 317.8 92.7 C 314.3 92.4 311.6 92.6 310.7 93.3 C 308.4 95.2 302.5 116.2 301.4 126.7 C 300.2 137.4 300.2 137.5 293.4 137.7 C 290.2 137.8 288.1 137.7 288.8 137.4 C 289.4 137.1 290 135.8 290 134.5 C 290 133.2 290.5 131.8 291 131.5 C 291.6 131.2 292 129.8 292 128.5 C 292 127.2 292.6 125.5 293.4 124.7 C 295.4 122.8 296.5 116.4 295.1 115.5 C 294.4 115.1 293.7 116 293.4 117.9 C 292.8 120.6 290.3 123.9 289.3 123.3 C 289.2 123.1 288.7 123 288.3 123 C 287.8 123 288.1 123.4 288.7 123.8 C 289.7 124.4 289.2 125.8 287 129.3 C 284 134 282.7 134.4 279.3 131.7 C 277.8 130.6 277.6 123.4 279 122.5 C 279.5 122.2 279.6 121.2 279.3 120.3 C 278.3 117.6 276 123.4 273.5 135.3 C 273 137.8 272.6 138 268.4 138 L 263.9 138 L 264.6 134.3 Z" fill="#000000"/>
        <path id="path_1" d="M 276.8 137.3 C 278 137.1 280 137.1 281.3 137.3 C 282.5 137.5 281.5 137.7 279 137.7 C 276.5 137.7 275.5 137.5 276.8 137.3 Z" fill="#000000"/>
        <path id="path_2" d="M 315.5 82 C 315.2 81.5 316 79.9 317.4 78.5 C 320 75.9 322 75.3 322 77.1 C 322 77.6 322.4 77.9 322.9 77.5 C 323.4 77.2 324.1 77.4 324.5 78 C 324.9 78.6 325.5 78.8 326 78.5 C 326.9 77.9 328.3 81 327.5 81.8 C 327.2 82.1 327 81.7 327 81 C 327 80.1 326.4 80.2 325 81.5 C 323.7 82.7 323 82.9 323 82 C 323 81 322.7 81 321.4 82.1 C 320.1 83.1 319.7 83.1 318.9 81.9 C 318.3 80.9 318 80.9 318 81.8 C 318 83.2 316.4 83.4 315.5 82 Z" fill="#000000"/>
        <path id="path_3" d="M 330 78.9 C 330 77.7 330.8 76.6 332 76.3 C 333.1 76 334 75.2 334 74.5 C 334 73.8 334.7 72.7 335.6 72 C 336.9 70.9 337.2 71 337.7 72.8 C 338 74.1 339 75 340.1 75 C 343.2 75 341.7 79.1 338.3 79.7 C 331.5 81.1 330 80.9 330 78.9 Z" fill="#000000"/>
        <path id="path_4" d="M 354 76.7 C 354 75.6 353.6 75.2 352.9 75.6 C 352.2 76 351.9 75.8 352.1 75.1 C 352.6 73.7 352.7 73.7 357.5 74.6 C 359.4 74.9 361 75.6 361 76 C 361 76.4 361.7 76.7 362.6 76.6 C 363.5 76.6 364.5 77 364.7 77.6 C 364.9 78.3 363.2 78.7 359.5 78.6 C 354.9 78.5 354 78.2 354 76.7 Z" fill="#000000"/>
        <path id="path_5" d="M 324 72.9 C 324 72.4 323.6 72.1 323.1 72.4 C 321.1 73.7 321.3 70.1 323.4 68.1 C 326.1 65.5 329.2 65.4 331.3 67.8 C 333.6 70.3 333.4 71.5 330.5 72.8 C 327.3 74.3 324 74.3 324 72.9 Z" fill="#000000"/>
        <path id="path_6" d="M 319 68.5 C 319 67.2 318.7 66.9 318.2 67.7 C 317.6 68.6 316.5 68.7 313.7 67.9 C 309.2 66.7 308.4 65.5 310 62.4 C 311 60.7 312 60.1 313.6 60.4 C 316.9 61 320 62.9 320 64.3 C 320 65.1 320.3 65 320.9 64.1 C 321.7 62.8 320.3 60 319 60.3 C 318.7 60.4 317.4 59.5 316.2 58.4 L 313.9 56.2 L 316.4 55.6 C 317.8 55.3 319 54.5 319 54 C 319 53.4 320.6 53 322.5 53 C 325.2 53 326.3 53.6 327.7 55.8 C 328.7 57.3 329.9 58.8 330.4 59.1 C 330.9 59.5 330.3 60.3 329.2 60.9 C 327.7 61.7 327 61.7 326.7 60.7 C 326.4 60 326.1 60.2 326.1 61.3 C 326 62.2 325.6 62.9 325 62.8 C 324.5 62.6 322.9 64.3 321.6 66.5 C 319.7 69.5 319.1 70 319 68.5 Z" fill="#000000"/>
        <path id="path_7" d="M 324 49.1 C 324 47.9 327.8 47 332.5 47.1 L 336.5 47.2 L 332.5 48.1 C 330.3 48.5 327.5 49.1 326.3 49.4 C 325 49.7 324 49.5 324 49.1 Z" fill="#000000"/>
        <path id="path_8" d="M 319 46 C 318.2 45.5 316.5 45 315.2 45 C 313.7 45 312.3 44 311.2 42 C 310.3 40.3 308.9 39.2 308.3 39.5 C 304.2 41 302.8 36.8 305.6 31.5 C 307 28.8 307 28.4 305.6 27.4 C 304.2 26.4 304.2 25.8 305.5 21.3 C 307.1 16 309.3 14.2 311.6 16.1 C 312.4 16.7 313 16.9 313 16.5 C 313 16.1 313.6 16.3 314.4 16.9 C 315.1 17.5 316.6 17.8 317.6 17.4 C 319.4 16.9 319.4 16.9 317.8 18 C 316.8 18.6 316 20.2 316 21.5 C 316 23 315.4 24 314.6 24 C 312.9 24 310 31 310 35.1 C 310 37.7 310.3 38 311.4 37.1 C 312.1 36.5 313 34.5 313.4 32.7 C 313.8 31 315.4 27.9 317 25.8 C 318.7 23.8 320 21.6 320 21.1 C 320 19.9 322.9 19.7 324.6 20.8 C 325.3 21.2 325.9 22.3 326.1 23.3 C 326.5 24.9 326.8 24.8 330.2 22.5 C 332.2 21.2 335.7 19.6 338.1 19.1 C 344.8 17.6 345.7 18.9 341.1 23.7 C 339.5 25.4 337.9 28.1 337.6 29.6 C 336.7 33.5 335.3 35.2 330.3 38.3 C 328 39.7 325.3 42.3 324.4 44 C 322.5 47.2 321.4 47.6 319 46 Z" fill="#000000"/>
        <path id="path_9" d="M 290.6 44.5 C 290.2 43.4 289.3 41.1 288.6 39.5 C 285.2 31.7 285.5 20.3 289.1 17.2 C 290.1 16.3 291 14.9 291 14.2 C 291 13.3 291.6 13 292.6 13.4 C 293.8 13.9 294 13.5 293.4 11.7 C 292.4 8.5 292.4 7.6 293.5 7 C 295 6.2 299 19 298.8 24 C 298.4 32.6 299 40 300.1 40 C 300.6 40 300.9 39.6 300.5 39.1 C 300.2 38.6 300.4 37.9 301 37.5 C 301.5 37.2 302 35.9 302.1 34.7 C 302.1 33.5 302.4 33.1 302.7 33.8 C 303 34.5 302.9 36.6 302.6 38.5 C 302.1 41.1 301.6 41.7 300 41.3 C 298.9 41 297.8 39.9 297.4 38.8 C 296.8 36.9 296.8 36.9 295.5 38.7 C 294.3 40.2 293.8 40.3 292.1 39.2 C 289.9 37.9 289.2 38.8 291.1 40.7 C 291.7 41.3 292 42.8 291.8 44.1 C 291.4 46.4 291.3 46.4 290.6 44.5 Z" fill="#000000"/>
    </g>
    <g id="group_1">
        <path id="path_10" d="M 273 114.3 C 274.3 112.5 275.5 111 275.7 111 C 276.5 111 274 114.8 272.4 116.1 C 271.3 117 271.5 116.3 273 114.3 Z" fill="#ffffff"/>
        <path id="path_11" d="M 275.6 101.8 C 276.4 99.1 280 93.7 280.6 94.3 C 281.5 95.2 277.7 104 276.3 104 C 275.3 104 275.1 103.4 275.6 101.8 Z" fill="#ffffff"/>
        <path id="path_12" d="M 357.5 90.2 C 354.9 89.8 346.9 86.8 347.2 86.4 C 347.4 86.3 350 86.8 353 87.6 C 356 88.4 360.5 89 363 89 C 366.4 89.1 367.1 89.3 365.8 90 C 364.3 90.9 361.9 91 357.5 90.2 Z" fill="none"/>
        <path id="path_13" d="M 287.2 66.1 C 287.4 64.7 288.1 63.5 288.8 63.2 C 290.5 62.7 290.3 64.2 288.5 66.6 C 287 68.4 287 68.4 287.2 66.1 Z" fill="#ffffff"/>
        <path id="path_14" d="M 320 34.3 C 320 32.6 325 26.9 326.1 27.6 C 326.6 27.9 327 27.4 327 26.6 C 327 25.7 327.4 25 327.9 25 C 328.4 25 329.6 24.7 330.5 24.4 C 332 23.8 332 24 330.9 25.8 C 330.2 26.9 329.2 27.6 328.6 27.3 C 328.1 26.9 327.9 27.3 328.2 28.2 C 328.6 29.1 328.2 29.7 327.4 29.7 C 326.6 29.7 326 29.3 326 28.8 C 326 27.6 322.6 31 321.2 33.5 C 320.6 34.6 320 35 320 34.3 Z" fill="#ffffff"/>
        <path id="path_15" d="M 315.9 30.3 C 316.5 29.3 318.1 27.2 319.5 25.5 C 322.7 21.8 322.1 24.8 318.7 29 C 316.3 32.2 314.4 33 315.9 30.3 Z" fill="#ffffff"/>
        <path id="path_16" d="M 335 24.3 C 335 22.7 334.8 22.7 333.9 24 C 333 25.3 332.9 25.3 333.3 24 C 333.5 23.2 334.6 22.4 335.8 22.2 C 337.4 21.9 337.7 22.3 337.3 23.9 C 336.6 26.5 335 26.7 335 24.3 Z" fill="#ffffff"/>
        <path id="path_17" d="M 295.7 19.3 C 294.8 16.8 294.2 14.5 294.4 14.3 C 294.6 14.1 295.6 15.9 296.5 18.5 C 297.5 21 298.1 23.2 297.8 23.5 C 297.6 23.7 296.6 21.8 295.7 19.3 Z" fill="#ffffff"/>
    </g>
</svg>